<?xml version="1.0" encoding="utf-8"?>
<!-- Generator: Adobe Illustrator 24.2.0, SVG Export Plug-In . SVG Version: 6.00 Build 0)  -->
<svg version="1.1" id="Layer_1" xmlns="http://www.w3.org/2000/svg" xmlns:xlink="http://www.w3.org/1999/xlink" x="0px" y="0px"
	 viewBox="0 0 28 28" style="enable-background:new 0 0 28 28;" xml:space="preserve">
<style type="text/css">
	.st0{fill:#FFFFFF;}
</style>
<path class="st0" d="M8.89,26.05c10.37,0,16.05-8.59,16.05-16.05c0-0.25-0.01-0.49-0.01-0.73c1.1-0.8,2.06-1.79,2.82-2.92
	c-1.01,0.45-2.1,0.75-3.24,0.89c1.17-0.7,2.06-1.8,2.48-3.12c-1.09,0.64-2.3,1.11-3.58,1.37c-1.03-1.09-2.5-1.78-4.12-1.78
	c-3.11,0-5.64,2.53-5.64,5.64c0,0.44,0.05,0.88,0.14,1.29C9.1,10.4,4.95,8.15,2.16,4.74C1.67,5.58,1.4,6.54,1.4,7.57
	c0,1.95,1,3.69,2.51,4.7c-0.93-0.03-1.8-0.28-2.56-0.7c0,0.02,0,0.05,0,0.07c0,2.73,1.95,5.01,4.53,5.53
	c-0.47,0.13-0.97,0.2-1.48,0.2c-0.36,0-0.72-0.04-1.06-0.1c0.72,2.24,2.8,3.87,5.27,3.92C6.68,22.7,4.24,23.6,1.6,23.6
	c-0.46,0-0.91-0.03-1.35-0.08C2.75,25.12,5.71,26.05,8.89,26.05"/>
</svg>
