<?xml version="1.0" encoding="utf-8"?>
<!-- Generator: Adobe Illustrator 24.2.0, SVG Export Plug-In . SVG Version: 6.00 Build 0)  -->
<svg version="1.1" id="Layer_1" xmlns="http://www.w3.org/2000/svg" xmlns:xlink="http://www.w3.org/1999/xlink" x="0px" y="0px"
	 viewBox="0 0 28 28" style="enable-background:new 0 0 28 28;" xml:space="preserve">
<style type="text/css">
	.st0{fill:#FFFFFF;}
</style>
<g>
	<path class="st0" d="M14,3.71c3.35,0,3.75,0.01,5.07,0.07c1.22,0.06,1.89,0.26,2.33,0.43c0.59,0.23,1,0.5,1.44,0.94
		s0.71,0.86,0.94,1.44c0.17,0.44,0.38,1.11,0.43,2.33c0.06,1.32,0.07,1.72,0.07,5.07s-0.01,3.75-0.07,5.07
		c-0.06,1.22-0.26,1.89-0.43,2.33c-0.23,0.59-0.5,1-0.94,1.44s-0.86,0.71-1.44,0.94c-0.44,0.17-1.11,0.38-2.33,0.43
		c-1.32,0.06-1.72,0.07-5.07,0.07s-3.75-0.01-5.07-0.07c-1.22-0.06-1.89-0.26-2.33-0.43c-0.59-0.23-1-0.5-1.44-0.94
		s-0.71-0.86-0.94-1.44c-0.17-0.44-0.38-1.11-0.43-2.33C3.72,17.75,3.71,17.35,3.71,14s0.01-3.75,0.07-5.07
		C3.84,7.7,4.04,7.04,4.21,6.6c0.23-0.59,0.5-1,0.94-1.44C5.59,4.71,6.01,4.44,6.6,4.21c0.44-0.17,1.1-0.37,2.33-0.43
		C10.25,3.72,10.65,3.71,14,3.71 M14,1.45c-3.41,0-3.84,0.01-5.18,0.08C7.49,1.58,6.57,1.79,5.78,2.1C4.95,2.43,4.25,2.85,3.55,3.55
		S2.42,4.95,2.1,5.77c-0.31,0.8-0.52,1.71-0.58,3.05S1.45,10.59,1.45,14s0.01,3.84,0.08,5.18c0.06,1.34,0.27,2.25,0.58,3.05
		c0.32,0.83,0.75,1.53,1.45,2.22c0.7,0.7,1.4,1.13,2.22,1.45c0.8,0.31,1.71,0.52,3.05,0.58s1.77,0.08,5.18,0.08s3.84-0.01,5.18-0.08
		c1.34-0.06,2.25-0.27,3.05-0.58c0.83-0.32,1.53-0.75,2.22-1.45c0.7-0.7,1.13-1.4,1.45-2.22c0.31-0.8,0.52-1.71,0.58-3.05
		s0.08-1.77,0.08-5.18s-0.01-3.84-0.08-5.18c-0.06-1.34-0.27-2.25-0.58-3.05c-0.32-0.83-0.75-1.53-1.45-2.22
		c-0.7-0.7-1.4-1.13-2.22-1.45c-0.8-0.31-1.71-0.52-3.05-0.58C17.84,1.46,17.41,1.45,14,1.45L14,1.45z"/>
	<path class="st0" d="M14,7.55c-3.56,0-6.45,2.89-6.45,6.45s2.89,6.45,6.45,6.45s6.45-2.89,6.45-6.45S17.56,7.55,14,7.55z M14,18.18
		c-2.31,0-4.18-1.87-4.18-4.18S11.69,9.82,14,9.82s4.18,1.87,4.18,4.18S16.31,18.18,14,18.18z"/>
	<circle class="st0" cx="20.7" cy="7.3" r="1.51"/>
</g>
</svg>
