<?xml version="1.0" encoding="utf-8"?>
<!-- Generator: Adobe Illustrator 24.2.0, SVG Export Plug-In . SVG Version: 6.00 Build 0)  -->
<svg version="1.1" id="Layer_1" xmlns="http://www.w3.org/2000/svg" xmlns:xlink="http://www.w3.org/1999/xlink" x="0px" y="0px"
	 viewBox="0 0 28 28" style="enable-background:new 0 0 28 28;" xml:space="preserve">
<style type="text/css">
	.st0{fill:#FFFFFF;}
</style>
<g>
	<path class="st0" d="M26.73,12.13c0-1.33,0-2.66,0-3.98c0-0.07,0-0.14-0.02-0.21c0-0.02,0-0.03,0-0.05c-0.01-0.01-0.03-0.01-0.04,0
		c-0.12-0.11-0.26-0.11-0.42-0.07c-0.21,0.01-0.41-0.04-0.61-0.07c0-0.28,0.01-0.57,0.01-0.85c0-0.1-0.01-0.18-0.15-0.15
		c-0.08,0-0.16-0.01-0.24-0.01c-0.1-0.07-0.23-0.04-0.34-0.08c-0.03,0-0.05,0-0.08,0c-0.03-0.02-0.06-0.02-0.09,0.01
		c-0.02-0.02-0.04-0.04-0.07-0.04c-0.03,0-0.06,0-0.09,0c-0.03-0.01-0.06-0.03-0.09-0.04c-0.03,0-0.06,0-0.09,0
		c-0.01,0-0.02-0.01-0.03-0.02c-0.02,0-0.04-0.01-0.06-0.01c-0.08-0.01-0.16-0.04-0.23-0.06c-0.03,0-0.05-0.01-0.08-0.01
		c-0.08-0.03-0.17-0.04-0.25-0.08c-0.23-0.06-0.46-0.12-0.66-0.25c-0.07,0-0.13-0.02-0.17-0.08c-0.06,0-0.11-0.02-0.17-0.06
		c-0.21-0.13-0.43-0.24-0.65-0.36c-0.02-0.01-0.03-0.02-0.05-0.03c0-0.02,0-0.03,0-0.05c-0.01-0.01-0.03-0.02-0.04-0.03
		c-0.05-0.03-0.1-0.07-0.16-0.06c-0.05,0.08,0,0.13,0.05,0.19c0.03,0.02,0.07,0.04,0.11,0.04c0,0,0,0,0.01,0
		c0,0.04,0.01,0.07,0.04,0.08c0.01,0.12,0.13,0.16,0.18,0.25c0.08,0.09,0.17,0.18,0.28,0.24c0.05,0.04,0.11,0.09,0.16,0.13
		c0.05,0.06,0.08,0.15,0.18,0.15c0.01,0,0.02,0,0.03,0.01c0.03,0.06,0.07,0.1,0.13,0.11c0.02,0,0.04,0.01,0.06,0.02
		c0.04,0.03,0.07,0.07,0.11,0.1c0.05,0.02,0.09,0.04,0.14,0.06l0.01,0.01c0.03,0.04,0.06,0.08,0.12,0.07
		c0.02,0.01,0.04,0.02,0.06,0.04c0.03,0.09,0.14,0.05,0.18,0.12c0.01,0.04,0.05,0.03,0.08,0.04c0.01,0,0.02,0,0.03,0.01
		c0.08,0.12,0.22,0.11,0.33,0.16c0.02,0,0.05,0,0.07,0c0.08,0.07,0.19,0.08,0.29,0.12c0.04,0.07,0.11,0.03,0.16,0.04
		c0.07,0.05,0.16,0.08,0.25,0.08c0.08,0.05,0.16,0.07,0.26,0.07c0.03,0,0.05,0.01,0.08,0.01c0.05,0.05,0.11,0.04,0.16,0.04
		c0.03,0.01,0.06,0.03,0.09,0.04c0.02,0.01,0.04,0.02,0.05,0.01v0.01c0.01,0.02,0.03,0.03,0.05,0.02c0,0.03-0.01,0.04-0.01,0.05
		C25.57,7.9,25.58,8,25.58,8.1c0,0.94,0,1.89,0,2.83c0,0.3-0.02,0.31-0.32,0.29c-0.1-0.01-0.19-0.03-0.29-0.04
		c-0.33-0.04-0.66-0.08-0.99-0.12c-0.04,0-0.09,0-0.13,0c-0.05-0.02-0.09-0.02-0.14-0.02c-0.02-0.01-0.03-0.02-0.05-0.03
		C23.62,11,23.58,11,23.54,10.99c-0.05,0-0.09,0-0.13-0.01c-0.02-0.01-0.03-0.02-0.05-0.02c-0.01,0-0.01,0-0.02,0
		c-0.02-0.01-0.03-0.01-0.05-0.02c-0.07-0.04-0.16-0.05-0.24-0.08c-0.02-0.01-0.04-0.01-0.05-0.01c-0.03-0.01-0.06-0.01-0.08-0.01
		c-0.02,0-0.04-0.01-0.07-0.02c-0.01,0-0.02,0-0.02-0.01c-0.04-0.02-0.08-0.04-0.12-0.05c-0.14-0.02-0.26-0.15-0.41-0.06
		c-0.01-0.04-0.03-0.07-0.07-0.09c-0.02-0.01-0.04-0.02-0.06-0.02c-0.94-0.35-1.85-0.75-2.63-1.4c-0.04-0.03-0.08-0.07-0.13-0.06
		c-0.03-0.03-0.06-0.1-0.08,0.01c-0.01,0.04-0.01,0.08-0.01,0.12c-0.01,0.07-0.01,0.15-0.01,0.22c0,0.03-0.01,0.06-0.02,0.09
		c0.01,0.04,0.02,0.08,0.02,0.12c0,2.8,0,5.6,0,8.4c0,0.23-0.01,0.46-0.02,0.69c-0.01,0.02-0.02,0.04-0.03,0.06
		c-0.05,0.11-0.05,0.23-0.02,0.34c0.01,0.01,0.01,0.02,0.02,0.03c-0.05,0.11-0.05,0.24-0.07,0.36c0,0.01,0,0.03,0.01,0.04
		c-0.01,0.01-0.01,0.02-0.02,0.03c-0.01,0.03-0.02,0.06-0.03,0.09c-0.01,0.04-0.01,0.07,0,0.11c-0.02,0.06-0.02,0.11-0.02,0.17
		c-0.01,0.01-0.01,0.03-0.03,0.04c-0.03,0.08-0.05,0.18-0.09,0.26c0,0.03-0.01,0.06-0.01,0.1c0,0.1-0.04,0.2-0.07,0.3
		c-0.14,0.54-0.32,1.07-0.58,1.57c-0.02,0.06-0.05,0.13-0.08,0.19c-0.12,0.25-0.26,0.49-0.41,0.72c-0.07,0.16-0.22,0.28-0.26,0.46
		c0,0,0,0,0,0.01c-0.02,0.02-0.04,0.05-0.06,0.08c-0.2,0.26-0.37,0.54-0.65,0.73c-0.02,0.01-0.02,0.03-0.02,0.04
		c-0.06,0.01-0.12,0.05-0.16,0.1c-0.02,0.03-0.03,0.05-0.04,0.08c0,0.01-0.01,0.02-0.01,0.04c-0.02,0.03-0.04,0.07-0.09,0.07
		c-0.21,0.15-0.42,0.31-0.59,0.5c-0.09,0.14-0.26,0.18-0.38,0.29c-0.01,0-0.02,0-0.03,0c-0.03,0-0.06,0-0.08,0.01
		c-0.06,0.05-0.13,0.06-0.19,0.11c-0.06,0.07-0.13,0.12-0.22,0.14c-0.02,0.01-0.03,0.01-0.05,0.02c-0.07,0.04-0.15,0.07-0.22,0.11
		c-0.19,0.12-0.42,0.14-0.58,0.31c-0.04,0-0.08,0.01-0.12,0.04c-0.01,0-0.01,0-0.02,0c-0.02,0.01-0.04,0.01-0.05,0.03v0.01
		c-0.03,0-0.05,0-0.08,0c-0.04,0-0.08,0-0.13,0c-0.03,0-0.05,0.02-0.07,0.03h-0.01c-0.03,0-0.06,0.01-0.09,0.02
		c-0.06,0.03-0.12,0.06-0.18,0.09c0,0,0,0-0.01,0.01c-0.02-0.01-0.04-0.01-0.06,0.01c-0.07,0.01-0.14,0.01-0.19,0.06
		c-0.01-0.01-0.03-0.01-0.04-0.01c-0.06-0.01-0.13-0.01-0.19,0.02c-0.02,0.02-0.05,0.03-0.08,0.04c-0.03,0-0.06,0-0.09,0.01
		c-0.05,0-0.09,0-0.14,0c-0.26-0.02-0.51,0.06-0.76,0.11c-0.02,0.01-0.04,0.02-0.06,0.04c-0.24,0-0.49-0.01-0.73-0.01
		c-0.1-0.05-0.19-0.07-0.28,0c0,0,0,0,0-0.01c-0.16-0.08-0.34-0.07-0.51-0.12c-0.27,0-0.52-0.08-0.79-0.1c-0.04,0-0.09,0-0.13,0
		c-0.02-0.01-0.05-0.01-0.07-0.01c-0.02-0.01-0.05-0.02-0.07-0.04c-0.03-0.01-0.06-0.02-0.09-0.03c-0.09,0-0.18-0.03-0.26-0.07
		c-0.02-0.01-0.06-0.01-0.1-0.01c-0.03,0-0.05,0-0.08-0.01c-0.02-0.01-0.04-0.01-0.06-0.02c-0.03-0.01-0.05-0.02-0.07-0.04
		c-0.2-0.11-0.42-0.18-0.63-0.27c-0.07,0-0.11-0.03-0.17-0.06c-0.09-0.03-0.18-0.09-0.28-0.09c-0.01-0.03-0.05-0.05-0.08-0.07
		c-0.09-0.03-0.17-0.08-0.24-0.13c-0.18-0.07-0.32-0.19-0.49-0.28c-0.05-0.02-0.1-0.06-0.14-0.09c-0.16-0.1-0.28-0.23-0.46-0.29
		c-0.03,0-0.05-0.01-0.08-0.01c-0.07-0.09-0.16-0.15-0.26-0.19c-0.04-0.06-0.1-0.1-0.16-0.13c0.02,0.1,0.09,0.16,0.17,0.21
		c0.04,0.11,0.15,0.15,0.21,0.24c0.01,0.03,0.03,0.05,0.04,0.08c0.06,0.11,0.14,0.2,0.24,0.27c0.1,0.1,0.18,0.22,0.32,0.27
		c0.01,0.01,0.01,0.02,0.02,0.04c0.03,0.07,0.12,0.08,0.15,0.15c0.08,0.07,0.16,0.15,0.26,0.19c0.07,0.06,0.11,0.16,0.21,0.14
		c0.04,0.09,0.12,0.12,0.2,0.14c0.05,0.03,0.11,0.06,0.16,0.1c0.05,0.08,0.12,0.14,0.22,0.15c0.01,0,0.02,0,0.02,0.01
		C7.9,26.75,7.96,26.75,8,26.77c0.18,0.07,0.33,0.21,0.53,0.25c0.04,0.05,0.11,0.07,0.17,0.09c0.1,0.05,0.2,0.11,0.3,0.15
		c0.73,0.31,1.49,0.49,2.27,0.6c0.18,0.08,0.37,0.03,0.55,0.07c0.43,0,0.87,0,1.3,0c0.18-0.02,0.37-0.02,0.55-0.07
		c0.04,0,0.07-0.01,0.11-0.01c0.04-0.02,0.08-0.01,0.12-0.02c0.17-0.06,0.36,0.02,0.51-0.11c0.02-0.01,0.05-0.02,0.08-0.03
		c0.71-0.18,1.38-0.44,2-0.84c0.07-0.03,0.13-0.06,0.2-0.09c0.05-0.04,0.09-0.08,0.14-0.12c0.02,0,0.03,0,0.05,0
		c0.22-0.09,0.39-0.24,0.55-0.41c0-0.01,0.01-0.02,0.01-0.03c0.01,0,0.02-0.01,0.03-0.01c0.04-0.05,0.09-0.1,0.13-0.15
		c0.15-0.14,0.3-0.28,0.45-0.42c0.01-0.01,0.02-0.03,0.02-0.04c0.01,0,0.03-0.01,0.04-0.01c0.04-0.02,0.05-0.06,0.05-0.1
		c0.08-0.06,0.15-0.14,0.2-0.22c0.01,0,0.02,0,0.03,0c0.22-0.15,0.32-0.39,0.47-0.58c0.04-0.05,0.06-0.11,0.04-0.17l-0.01-0.01
		c0.02,0,0.04-0.01,0.05-0.01c0.01-0.03,0.01-0.05,0.02-0.08c0.01,0,0.02,0,0.03,0c0.1-0.07,0.17-0.16,0.17-0.29
		c0.07-0.15,0.14-0.29,0.21-0.44c0.05-0.05,0.07-0.11,0.08-0.18c0.09-0.06,0.08-0.18,0.12-0.27c0.16-0.32,0.3-0.66,0.37-1.02
		c0.03-0.04,0.05-0.09,0.08-0.13c0-0.05,0.01-0.11,0.01-0.16c0.05-0.1,0.08-0.21,0.08-0.32c0.03-0.09,0.06-0.17,0.08-0.26
		c0.02-0.03,0.02-0.06,0.01-0.1l-0.01-0.01c0-0.02,0-0.03,0.01-0.05c0.1-0.04,0.02-0.13,0.07-0.19c0.01-0.11-0.01-0.22,0.03-0.32
		c0.05-0.06,0.04-0.14,0.03-0.21c0.01-0.02,0.01-0.05,0-0.07c0-0.02,0.01-0.04,0.02-0.05c0-0.05,0.01-0.11,0.01-0.16
		c0.03-0.08,0.01-0.17,0.03-0.25c0-0.06,0-0.12,0-0.18c0.01-0.27,0.02-0.54,0.02-0.81c0-2.83,0.02-5.66-0.01-8.49
		c0.01-0.18,0.11-0.06,0.17-0.04c0.23,0.17,0.46,0.34,0.7,0.51c0.03,0.03,0.08,0.04,0.11,0.08c0.1,0.05,0.2,0.09,0.3,0.14
		c0.06,0.03,0.12,0.07,0.17,0.1l-0.01,0.02c0.03,0.05,0.08,0.06,0.14,0.07H22l0.01,0.01c0.06,0.11,0.19,0.12,0.28,0.17
		c0.02,0,0.04,0,0.05-0.01c0.03,0,0.07,0,0.08,0.04c0.02,0.02,0.05,0.04,0.08,0.03c0.09,0.01,0.17,0.06,0.25,0.1
		c0.05,0.03,0.11,0.06,0.17,0.07c0.3,0.1,0.6,0.2,0.9,0.29c0.04,0.04,0.08,0.06,0.13,0.07c0.1,0.02,0.19,0.07,0.29,0.04
		c0.03,0.01,0.05,0.01,0.08,0.02c0.1,0.04,0.19,0.08,0.3,0.07c0.18,0.03,0.35,0.06,0.53,0.1c0.13,0.09,0.26,0.12,0.41,0.07
		c0.36,0,0.72,0.1,1.08,0.07c0.01,0.01,0.02,0.01,0.03,0.01c0.03-0.05,0.04-0.07,0.04-0.1C26.74,12.3,26.73,12.21,26.73,12.13z
		 M20.13,20.82c-0.01-0.01-0.01-0.01-0.01-0.01h0.01V20.82z M20.29,20.5c0.01,0,0.02-0.01,0.03-0.01c0,0.01,0.01,0.02,0.01,0.03
		C20.31,20.51,20.3,20.5,20.29,20.5z"/>
	<path class="st0" d="M12.37,11.24c0,1.09,0,2.19,0,3.28c0,0.12,0.02,0.27-0.19,0.2c-0.35-0.03-0.69-0.03-1.04,0
		c-0.05,0.02-0.1,0.04-0.15,0.05c-0.06,0-0.11,0-0.17,0c-0.02,0.01-0.05,0.02-0.07,0.02c-0.04,0-0.08,0-0.12,0
		c-0.05,0-0.11,0-0.16,0.02c-0.02,0.01-0.04,0.01-0.06,0.03c-0.01,0.01-0.03,0.02-0.04,0.02c-0.03,0-0.06,0.01-0.09,0.02
		c-0.04,0-0.08,0-0.11,0c-0.09,0-0.18,0.02-0.24,0.1c0,0.01,0,0.02,0,0.03c-0.06,0-0.11,0.02-0.16,0.05c-0.01,0-0.01,0-0.02,0
		c-0.02,0-0.04,0.01-0.05,0.02s-0.02,0.02-0.03,0.03c-0.04,0-0.07,0.02-0.09,0.04c-0.01,0-0.02,0.01-0.04,0.01
		c-0.02,0.01-0.03,0.02-0.04,0.03c-0.09,0.03-0.17,0.06-0.23,0.13c0,0-0.01,0-0.01-0.01c-0.08-0.01-0.14,0.04-0.21,0.08
		c-0.06,0.07-0.13,0.12-0.21,0.16c-0.02,0.01-0.03,0.02-0.05,0.03c-0.29,0.25-0.55,0.51-0.7,0.87c0,0.01,0,0.01,0,0.02
		c-0.01,0.01-0.02,0.02-0.04,0.03c0,0.03,0,0.07-0.05,0.08c-0.01,0.04-0.02,0.08-0.03,0.12c-0.01,0.01-0.02,0.02-0.04,0.02
		c-0.15,0.15-0.2,0.35-0.26,0.55c-0.02,0.14-0.09,0.26-0.1,0.4c0,0.15-0.04,0.3-0.07,0.45c-0.01,0.03-0.01,0.07-0.01,0.1
		c-0.01,0.15,0,0.31,0,0.46c0,0.07,0,0.14,0.02,0.21c0.04,0.14,0.04,0.28,0.09,0.42c0.01,0.03,0.02,0.05,0.03,0.08v0.01
		c0.01,0.02,0.01,0.03,0.02,0.05c0.01,0.05,0.02,0.11,0.01,0.16c0,0.1,0.03,0.19,0.06,0.28c0.07,0.14,0.1,0.31,0.21,0.43
		c0.01,0.01,0.02,0.03,0.03,0.04c0,0.01,0,0.02,0,0.03c0.02,0.05,0.05,0.08,0.08,0.13c0.04,0.05,0.08,0.1,0.13,0.16
		c0,0.01,0,0.03,0,0.04c0,0.02,0.01,0.04,0.01,0.05c0.03,0.05,0.06,0.1,0.08,0.15c0.1,0.13,0.24,0.22,0.35,0.33
		c0.11,0.09,0.22,0.19,0.35,0.25c0.01,0.06,0.06,0.05,0.11,0.02c-0.01-0.01-0.02-0.03-0.03-0.04c0.01-0.03,0.01-0.06-0.01-0.08
		C9,21.34,8.99,21.28,8.95,21.23c-0.05-0.08-0.09-0.15-0.09-0.25c0.01-0.06,0.02-0.13-0.06-0.16c-0.01-0.03-0.02-0.06-0.02-0.09
		c0.03-0.07,0.01-0.12-0.04-0.17c-0.05-0.09-0.05-0.18-0.05-0.28c-0.04-0.43-0.06-0.86,0-1.29c0-0.25,0.08-0.49,0.17-0.72
		c0.22-0.55,0.49-1.07,0.99-1.44c0.03-0.02,0.06-0.04,0.06-0.08c0,0,0,0,0-0.01c0.02-0.02,0.04-0.03,0.06-0.05
		c0.02,0,0.04,0.01,0.06,0c0.09-0.04,0.18-0.07,0.22-0.17c0.01-0.01,0.03-0.02,0.04-0.03c0.17-0.05,0.32-0.14,0.46-0.24l0.01-0.01
		h0.02c0.07-0.01,0.12-0.04,0.17-0.07c0.01,0,0.03,0,0.04-0.01c0.12-0.08,0.26-0.11,0.41-0.12c0.14-0.02,0.3,0.04,0.43-0.08
		c0.04-0.01,0.08-0.03,0.12-0.04c0.35,0,0.69,0,1.04-0.01v0.01c0.09,0.02,0.17,0.02,0.26,0.03c0,0,0,0,0.01,0
		c0.08-0.01,0.16,0.06,0.23-0.03c0.01-0.01,0.02,0,0.02-0.01c0.03-0.05,0.02-0.11,0.02-0.16c0-1.49,0-2.98,0-4.47
		c0-0.07,0.01-0.14-0.04-0.2c-0.06-0.05-0.15,0-0.21-0.04c-0.03,0-0.05-0.01-0.08-0.01c-0.01-0.01-0.02-0.01-0.03,0
		C13.09,11.02,13,10.99,12.92,11c-0.17,0.01-0.34-0.09-0.51-0.02C12.35,11.06,12.37,11.15,12.37,11.24z"/>
	<path class="st0" d="M12.25,11.12c0.01,0,0.01-0.01,0.02-0.01c0-0.01-0.01-0.02-0.01-0.03C12.25,11.09,12.25,11.1,12.25,11.12z"/>
	<polygon class="st0" points="10.6,11.13 10.61,11.14 10.61,11.13 	"/>
	<polygon class="st0" points="7.7,16.68 7.71,16.68 7.7,16.67 	"/>
	<path class="st0" d="M5.76,14.11c0.08-0.09,0.14-0.2,0.23-0.29c0.05-0.08,0.11-0.13,0.17-0.2c0.09-0.1,0.23-0.18,0.25-0.34v-0.01
		c0.08-0.05,0.15-0.12,0.2-0.2c0.03,0,0.05,0,0.08-0.01C6.73,13.03,6.77,13,6.8,12.97c0.01-0.01,0.03-0.02,0.04-0.04
		c0.13-0.15,0.29-0.26,0.46-0.37c0.06-0.03,0.1-0.08,0.15-0.12c0.06-0.05,0.15-0.07,0.19-0.15c0-0.01,0.01-0.02,0.01-0.03
		c0.02,0.01,0.04,0,0.05-0.03c0.01-0.03,0.04-0.03,0.07-0.04c0.01-0.01,0.01-0.02,0.02-0.03c0.02,0.01,0.04,0,0.05-0.01
		c0.24-0.07,0.43-0.26,0.67-0.32c0.03-0.01,0.05-0.02,0.07-0.04c0.03-0.02,0.05-0.04,0.08-0.06c0.04-0.03,0.09-0.05,0.14-0.06
		c0.02-0.01,0.03-0.01,0.05-0.02c0.03-0.01,0.06-0.03,0.09-0.04c0.03-0.02,0.06-0.03,0.09-0.04c0.05-0.03,0.11-0.05,0.17-0.06
		c0.03-0.01,0.06-0.01,0.08-0.03c0.15-0.06,0.31-0.1,0.46-0.15c0.24-0.09,0.5-0.09,0.74-0.18c0.02-0.01,0.03-0.03,0.03-0.05
		l-0.01-0.01c0.11-0.02,0.22-0.03,0.33-0.05c0.18-0.02,0.35-0.04,0.53-0.06c0.05,0,0.1-0.01,0.15-0.02c0.19,0,0.38,0,0.57,0
		c0.11,0,0.21,0,0.32,0c0-0.22,0.02-0.45,0.01-0.67c0-0.11,0.05-0.23-0.04-0.32c-0.01-0.01-0.02-0.01-0.04,0
		c-0.06-0.02-0.12-0.05-0.18-0.07c-0.08,0-0.16-0.01-0.24-0.01c-0.05-0.03-0.1-0.04-0.14-0.01c-0.01,0-0.02-0.01-0.03-0.01
		c-0.42-0.07-0.84-0.02-1.25-0.03c-0.19-0.01-0.38,0-0.57,0.05V9.9c-0.08,0-0.16,0-0.24,0c-0.01,0.01-0.05,0-0.07,0.03H9.6
		c-0.05,0-0.11,0.01-0.16,0.03c-0.05,0-0.11,0.01-0.16,0.01c-0.08,0.04-0.17,0.04-0.25,0.07c-0.1,0-0.19,0.06-0.29,0.09
		c-0.04,0-0.08,0-0.12,0c-0.07,0-0.15-0.03-0.17,0.07c-0.12,0-0.2,0.11-0.32,0.09c-0.21,0.04-0.41,0.11-0.58,0.25
		c-0.03,0.03-0.09,0.02-0.11,0.06c0,0.01-0.01,0.01-0.01,0.02c-0.04,0-0.08,0.01-0.11,0.01c0,0.02-0.01,0.04-0.01,0.06
		c-0.33,0.15-0.64,0.33-0.91,0.57c-0.07,0-0.1,0.05-0.13,0.09c-0.08-0.02-0.07,0.11-0.15,0.09c-0.23,0.12-0.41,0.31-0.62,0.46
		c-0.13,0.13-0.25,0.26-0.37,0.41c-0.09,0.11-0.21,0.2-0.24,0.35c0,0.01,0,0.02,0,0.02c-0.03,0-0.05,0.03-0.06,0.05
		c-0.01,0-0.02,0.01-0.02,0.01c-0.35,0.34-0.6,0.75-0.8,1.19c-0.11,0.08-0.13,0.21-0.17,0.33c-0.03,0.06-0.06,0.11-0.09,0.17
		c-0.02,0.02-0.03,0.05-0.03,0.08c-0.03,0.01-0.02,0.07-0.04,0.09c0,0.01,0,0.03-0.01,0.04s-0.01,0.03,0,0.05h0.01
		c0,0.01-0.01,0.03-0.01,0.04c-0.03,0-0.06,0.02-0.07,0.04c0,0.03,0,0.05,0,0.08l-0.02-0.01c-0.09,0.09-0.13,0.2-0.13,0.32
		c0,0.01,0,0.01,0,0.02c-0.01,0-0.02,0-0.03,0c0,0.01,0,0.02-0.01,0.03c0,0.05,0,0.1,0,0.16H3.4c-0.17,0.09-0.15,0.27-0.2,0.41
		c0,0.04,0,0.08,0,0.12c0,0.01,0,0.01,0,0.02c-0.01,0.01-0.02,0.03-0.03,0.04c0,0.01,0,0.03-0.01,0.04c0,0.03,0.01,0.06,0.01,0.09
		H3.16c-0.02,0.05-0.03,0.11-0.04,0.17c-0.03,0.02-0.02,0.07-0.04,0.09c0,0.03-0.01,0.05-0.01,0.08c-0.01,0.01-0.01,0.03-0.01,0.05
		c0.01,0.01,0.02,0.02,0.02,0.03s0,0.02,0,0.03c-0.01,0.01-0.02,0.03-0.03,0.04C3,16.63,3.02,16.71,2.99,16.76
		c0,0.03-0.01,0.05-0.01,0.08c-0.06,0.08-0.06,0.16,0,0.24v0.01c-0.04-0.02-0.05,0.02-0.06,0.06c-0.01,0.04,0,0.08-0.02,0.11
		c0,0.07-0.01,0.13-0.01,0.2c-0.05,0.07-0.05,0.14,0,0.2c-0.05,0.05-0.03,0.12-0.04,0.18c-0.03,0.38-0.01,0.75-0.02,1.13
		c-0.01,0.14,0.02,0.27,0.02,0.41c0.01,0.02,0.03,0.04,0.04,0.07c0,0.01,0,0.03-0.01,0.04c0,0.03,0.01,0.05,0.01,0.08
		c0.02,0.11-0.07,0.25,0.07,0.34c0.01,0.05,0.01,0.11,0.02,0.16c0,0.03,0,0.06-0.01,0.08c0.04,0.03,0,0.09,0.04,0.12v0.01
		c0.01,0.03,0.02,0.06,0.03,0.08l0.01,0.01c0,0.01-0.01,0.02-0.01,0.03c0,0.03,0.01,0.05,0.01,0.08c0.01,0.02,0.02,0.03,0.04,0.05
		c0,0.02,0,0.04,0,0.06c0.01,0.05,0.01,0.1,0.04,0.15c0,0.03,0,0.05,0.01,0.08C3.19,20.9,3.15,21,3.22,21.07
		c0.03,0.07,0.06,0.14,0.09,0.21c-0.01,0.06,0,0.11,0.07,0.14c0,0.02,0.01,0.04,0.01,0.07c0,0.03,0,0.05,0,0.08
		c0.01,0.02,0.03,0.03,0.04,0.05c0,0.01,0,0.02,0,0.03c0,0.03,0.02,0.06,0.04,0.09c0.03,0.05,0.06,0.11,0.09,0.16
		c-0.02,0.1,0.1,0.15,0.08,0.25c0.02,0.03,0.03,0.05,0.05,0.08h0.02l0.02,0.01c0,0.07,0.03,0.12,0.08,0.16
		c0,0.07,0.04,0.12,0.09,0.16c0.06,0.18,0.17,0.32,0.28,0.46c0.01,0.01,0.02,0.03,0.03,0.04c0.01,0.07,0.05,0.12,0.1,0.16
		c0.09,0.15,0.17,0.31,0.32,0.42c0.1,0.2,0.25,0.36,0.42,0.5c0.08,0.16,0.26,0.25,0.35,0.4c0.03,0,0.05,0.01,0.08,0.01
		c-0.06-0.1-0.11-0.19-0.17-0.29c-0.07-0.05-0.08-0.15-0.17-0.17c0.01-0.01,0-0.02,0-0.04c0.01-0.09-0.09-0.12-0.08-0.21
		C5.03,23.82,5.01,23.8,5,23.77c0-0.01,0-0.03,0-0.05c-0.03-0.09-0.05-0.19-0.17-0.19c0.02-0.29-0.15-0.5-0.28-0.73
		c-0.12-0.22-0.2-0.45-0.25-0.7c-0.01-0.08-0.02-0.15-0.07-0.22c0-0.03-0.01-0.05-0.01-0.08c-0.02-0.2-0.07-0.41-0.12-0.61
		c-0.03-0.07-0.03-0.15-0.03-0.22c-0.01-0.11-0.02-0.23-0.08-0.33c0-0.02,0.01-0.04,0-0.05c-0.01-0.01-0.02-0.02-0.03-0.03
		c-0.05-0.65-0.05-1.29,0-1.94h0.01c0.02-0.01,0.03-0.03,0.04-0.05c0.06-0.14,0.05-0.29,0.08-0.43C4.1,18.12,4.1,18.1,4.1,18.08
		c0-0.14,0.03-0.27,0.07-0.4c0.02-0.13,0.05-0.27,0.09-0.4c0.05-0.18,0.1-0.36,0.15-0.54c0.01-0.04,0.02-0.08,0.02-0.12
		c0-0.07,0.02-0.13,0.06-0.19c0.01-0.03,0.02-0.06,0.02-0.09c0-0.01,0-0.03,0-0.04c0.01-0.03,0.02-0.06,0.03-0.09
		c0.06-0.02,0.09-0.08,0.11-0.13c0.01-0.02,0.02-0.04,0.02-0.05c0.02-0.06,0.05-0.12,0.07-0.18c0.01-0.03,0.01-0.06,0.01-0.09
		c0-0.02,0-0.03,0-0.05c0.02-0.03,0.03-0.06,0.03-0.09c0.01-0.01,0.02-0.03,0.03-0.05c0-0.02,0.01-0.05,0.02-0.07
		c0.04-0.08,0.09-0.15,0.13-0.23c0.01-0.06,0.07-0.09,0.06-0.15c0.09-0.05,0.14-0.14,0.19-0.23c0.01-0.02,0.02-0.03,0.03-0.05
		c0.06-0.1,0.12-0.2,0.18-0.3c0.02-0.05,0.05-0.09,0.09-0.13c0.01-0.02,0.02-0.03,0.03-0.05c0.04-0.08,0.09-0.16,0.16-0.22
		C5.74,14.13,5.75,14.12,5.76,14.11z"/>
	<path class="st0" d="M12.92,21.63c-0.02,0.01-0.04,0.01-0.07,0.02c-0.04,0.02-0.07,0.04-0.1,0.07c-0.03,0.01-0.05,0.01-0.08,0.02
		c-0.05,0.01-0.08,0.05-0.13,0.07c-0.1,0.03-0.17,0.1-0.28,0.1c-0.07-0.01-0.13,0.02-0.18,0.07c-0.38,0.11-0.77,0.11-1.16,0.09
		C10.81,21.99,10.68,22,10.54,22c-0.07,0.01-0.14,0.02-0.2,0.02c-0.01,0-0.01,0-0.02,0c-0.01-0.02-0.03-0.03-0.05-0.04
		c-0.03,0-0.05-0.01-0.08-0.01c-0.08-0.01-0.14-0.07-0.23-0.05c-0.01-0.01-0.02-0.02-0.03-0.03c-0.05-0.06-0.13-0.04-0.18-0.08
		c-0.02,0-0.04-0.01-0.07-0.01c-0.05-0.04-0.09-0.09-0.17-0.08c-0.01,0-0.03-0.01-0.04-0.01c-0.05-0.02-0.09-0.05-0.14-0.07
		c-0.01,0-0.02,0-0.03-0.01c-0.05-0.07-0.11-0.13-0.21-0.1c-0.02,0.02-0.03,0.05-0.03,0.08c0.02,0.07,0.08,0.13,0.12,0.19
		c0.02,0.03,0.04,0.06,0.06,0.09c0.05,0.06,0.1,0.13,0.16,0.19c0.09,0.1,0.15,0.23,0.3,0.25c0,0,0,0.01-0.01,0.01
		c0.01,0.04,0.05,0.06,0.09,0.07c0.01,0,0.02,0,0.03,0c0.06,0.06,0.09,0.15,0.18,0.17c0.01,0,0.02,0,0.02-0.01v0.01
		c0.02,0.06,0.07,0.09,0.13,0.11c0.04,0.02,0.07,0.03,0.11,0.04c0.01,0,0.03,0,0.04,0c0.07,0.03,0.15,0.06,0.21,0.12
		c0.01,0,0.02,0,0.04,0c0.01,0,0.01,0.01,0.02,0.02c0.02,0.01,0.03,0.02,0.05,0.02c0.01,0,0.01,0,0.02,0
		c0.08,0.05,0.19,0.05,0.27,0.09c0.16,0.06,0.3,0.13,0.48,0.12c0.01,0.01,0.03,0.02,0.05,0.03c0.03,0.01,0.07,0.01,0.1,0.01
		c0.07,0.01,0.13,0.02,0.2,0.02c0.05,0,0.11,0.01,0.16,0.01c0.02,0.02,0.04,0.03,0.06,0.05c0.13,0.02,0.25,0.03,0.38,0
		c0.02-0.01,0.03-0.03,0.05-0.04c0.18,0.01,0.36-0.01,0.53-0.07c0.07,0,0.13-0.01,0.2-0.01c0.02-0.01,0.03-0.02,0.05-0.02
		c0.02,0,0.04,0,0.05,0c0.03,0,0.06-0.01,0.09-0.02c0.03-0.02,0.05-0.03,0.08-0.04c0.01,0,0.02-0.01,0.03-0.01
		C13.44,23,13.46,23,13.49,23c0.03-0.01,0.06-0.02,0.08-0.04c0-0.01,0-0.01,0.01-0.02c0.11-0.03,0.22-0.07,0.31-0.15
		c0.18-0.03,0.32-0.16,0.45-0.26c0.2-0.16,0.43-0.29,0.58-0.51c0.03-0.02,0.05-0.04,0.08-0.07c0.02-0.02,0.03-0.04,0.02-0.07
		c0.1-0.02,0.11-0.14,0.19-0.17c0.05-0.02,0.07-0.07,0.09-0.12c0-0.03,0-0.07,0.04-0.08c0-0.01,0.01-0.03,0-0.04
		c0.06-0.02,0.03-0.1,0.08-0.14c0.04-0.02,0.05-0.05,0.05-0.09c0.07-0.05,0.09-0.13,0.12-0.2c0.02-0.02,0.04-0.04,0.06-0.06
		c0.01-0.03,0.02-0.06,0.03-0.09c0-0.03,0-0.06,0.01-0.09c0.01-0.03,0.02-0.06,0.02-0.1c0.01-0.02,0.02-0.05,0.04-0.07
		c0.06-0.09,0.06-0.21,0.09-0.31c0.02-0.09,0.02-0.19,0.02-0.28c0-0.11,0-0.22,0-0.33c0.03-0.05,0.01-0.1,0.03-0.15
		c0-0.02,0-0.03-0.01-0.05c0.02-0.02,0.03-0.03,0.04-0.06c0.02-0.07,0.02-0.13-0.03-0.18c0,0,0,0,0-0.01
		c0.02,0.01,0.04,0.01,0.06-0.01c0.08-0.1,0.05-0.23,0.05-0.35c0-5.76,0-11.53,0-17.29c0-0.32,0-0.32,0.32-0.32
		c0.94,0,1.89,0,2.83,0c0.09,0,0.19,0.01,0.27-0.04c0,0.01,0,0.02,0,0.03c0,0.03,0,0.05,0.01,0.08c0.01,0.02,0.01,0.03,0.02,0.05
		c0.01,0.02,0,0.03,0.01,0.05c-0.01,0.04-0.01,0.08,0.02,0.11c0,0.01,0.01,0.01,0,0.02c-0.01,0.05,0,0.09,0.03,0.13
		c0.02,0.03,0.03,0.06,0.04,0.09c0,0.01,0.01,0.02,0.01,0.03c0.01,0.04,0.01,0.08,0.01,0.12c0,0.06,0,0.12,0.02,0.18
		c0.04,0.08,0.07,0.17,0.07,0.26c0,0.02,0.01,0.04,0.02,0.06c0.01,0.02,0.02,0.05,0.03,0.07c-0.01,0.03-0.02,0.06-0.04,0.11
		c0,0,0.01,0.01,0.03,0c0.02-0.03,0.02-0.07,0.01-0.1c0.07,0.16,0.13,0.33,0.2,0.5c0.1,0.24,0.2,0.48,0.34,0.69
		c0.03,0.04,0.06,0.08,0.11,0.1c0,0.01,0,0.02,0,0.03c0.03,0.05,0.04,0.12,0.08,0.17c0.01,0.01,0.02,0.01,0.02,0.02s0,0.02,0,0.03
		c0.08,0.2,0.21,0.35,0.38,0.47c-0.01,0.02-0.01,0.03,0,0.05c0.21,0.26,0.41,0.53,0.72,0.69c0,0,0,0,0.01-0.01
		c0.03,0.04,0.06,0.08,0.12,0.08c0-0.05-0.03-0.09-0.07-0.12c0,0,0.01,0,0.01-0.01c-0.05-0.19-0.14-0.35-0.29-0.49
		c-0.04-0.04-0.08-0.07-0.06-0.13c-0.04-0.21-0.15-0.39-0.25-0.58C21.02,4.01,21.01,4,21,3.98l-0.01,0.01
		c-0.15-0.42-0.31-0.84-0.37-1.29c0.03-0.11,0-0.2-0.08-0.27c0-0.02,0-0.04,0.01-0.06C20.52,2.25,20.5,2.12,20.47,2
		c0-0.02-0.01-0.04-0.01-0.05c-0.01-0.2-0.03-0.39-0.03-0.59c0-0.11-0.04-0.14-0.15-0.14c-0.27,0-0.55,0-0.82-0.01
		c-0.01-0.05-0.06-0.11-0.01-0.16c-0.05-0.06,0.01-0.15-0.04-0.21c-0.01,0-0.02,0-0.03,0c0-0.03-0.01-0.07-0.01-0.1
		c0.01,0,0.01-0.01,0.01-0.01c0.01-0.04,0.01-0.07-0.02-0.1c0-0.05,0.01-0.1,0.01-0.15c0-0.08,0-0.17,0-0.25
		c0.02-0.03,0.02-0.06-0.01-0.08c-0.02,0-0.05-0.01-0.07-0.01c-0.08-0.05-0.17-0.03-0.26-0.03c-1.38,0-2.77-0.01-4.15-0.01
		c0,0,0,0,0,0.01s0,0.01,0,0.02c0,0,0,0-0.01,0c-0.02,0-0.04,0-0.05,0.02c0,0.05,0,0.11,0,0.16c-0.03,0.03-0.03,0.05,0,0.08
		c0,0.06,0,0.11,0,0.17c-0.06,0.08-0.04,0.17-0.04,0.26c0,5.71,0,11.41,0,17.12c0,0.09-0.02,0.18,0.04,0.26c0,0.03,0,0.06,0.01,0.09
		c-0.01,0.01-0.01,0.03-0.02,0.04c-0.03,0.07-0.02,0.15-0.03,0.22c-0.02,0.3-0.09,0.6-0.12,0.9c0,0.05-0.01,0.1-0.01,0.15
		c-0.1,0.14-0.16,0.3-0.2,0.47c0,0.02,0,0.04,0,0.06c-0.03,0.03-0.04,0.07-0.04,0.12v0.01c-0.08,0.02-0.08,0.1-0.12,0.15
		c-0.01,0-0.03,0.01-0.04,0.01c-0.13,0.12-0.24,0.24-0.28,0.41v0.01c-0.08,0.06-0.15,0.13-0.2,0.21c-0.01,0-0.01,0-0.02,0
		c-0.06,0.01-0.09,0.06-0.14,0.09c-0.16,0.11-0.29,0.26-0.47,0.33C13.03,21.49,12.97,21.54,12.92,21.63z M13.01,22.97
		c0-0.01,0.01-0.01,0.02-0.02h0.01C13.02,22.95,13.01,22.96,13.01,22.97z"/>
</g>
</svg>
