<?xml version="1.0" encoding="utf-8"?>
<!-- Generator: Adobe Illustrator 24.2.0, SVG Export Plug-In . SVG Version: 6.00 Build 0)  -->
<svg version="1.1" id="Layer_1" xmlns="http://www.w3.org/2000/svg" xmlns:xlink="http://www.w3.org/1999/xlink" x="0px" y="0px"
	 viewBox="0 0 28 28" style="enable-background:new 0 0 28 28;" xml:space="preserve">
<style type="text/css">
	.st0{fill:#FEFEFE;}
</style>
<path class="st0" d="M14,0.63C6.61,0.63,0.63,6.61,0.63,14S6.61,27.37,14,27.37S27.37,21.38,27.37,14S21.39,0.63,14,0.63z
	 M22.02,15.58c-0.16,1.52-1.31,2.47-2.91,2.45c-1.58-0.02-2.72-1.03-2.85-2.54c-0.05-0.58,0-1.17-0.06-1.75
	c-0.13-1.16-1.05-1.98-2.19-2c-1.13-0.02-2.1,0.81-2.26,1.93c-0.16,1.08,0.51,2.13,1.58,2.46c0.45,0.14,0.89,0.11,1.34,0
	c0.57-0.14,1.03,0.14,1.15,0.65c0.12,0.47-0.15,0.93-0.69,1.08c-1.55,0.42-2.94,0.08-4.05-1.08c-1.15-1.2-1.47-2.64-0.88-4.2
	c0.57-1.52,1.71-2.44,3.35-2.6c2.48-0.24,4.41,1.55,4.46,4.04c0.01,0.47,0,0.95,0.06,1.42c0.09,0.65,0.59,0.79,1.16,0.78
	c0.54-0.01,0.94-0.23,1.01-0.8c0.39-3.44-1.1-6.28-4.26-7.39c-2.6-0.92-5.46,0.02-7.09,2.27c-1.6,2.19-1.59,5.2,0.01,7.4
	c1.62,2.22,4.52,3.14,7.11,2.25c0.12-0.04,0.24-0.1,0.36-0.14c0.6-0.21,1.1-0.01,1.28,0.5c0.17,0.48-0.06,0.95-0.64,1.17
	c-2.47,0.96-4.88,0.8-7.17-0.55c-3.23-1.89-4.71-5.81-3.58-9.38c1.15-3.65,4.57-5.9,8.51-5.61c3.54,0.26,6.63,3.18,7.18,6.79
	c0.08,0.51,0.08,1.03,0.12,1.55C22.07,14.29,22.07,15.16,22.02,15.58z"/>
</svg>
