<?xml version="1.0" encoding="utf-8"?>
<!-- Generator: Adobe Illustrator 24.2.0, SVG Export Plug-In . SVG Version: 6.00 Build 0)  -->
<svg version="1.1" id="Layer_1" xmlns="http://www.w3.org/2000/svg" xmlns:xlink="http://www.w3.org/1999/xlink" x="0px" y="0px"
	 viewBox="0 0 28 28" style="enable-background:new 0 0 28 28;" xml:space="preserve">
<style type="text/css">
	.st0{fill:#FFFFFF;}
</style>
<path class="st0" d="M27.27,7.29c-0.32-1.2-1.26-2.14-2.45-2.46C22.66,4.25,14,4.25,14,4.25s-8.66,0-10.82,0.59
	C1.99,5.15,1.05,6.09,0.73,7.29C0.16,9.46,0.16,14,0.16,14s0,4.54,0.58,6.71c0.32,1.2,1.26,2.14,2.45,2.46
	C5.34,23.75,14,23.75,14,23.75s8.66,0,10.82-0.59c1.19-0.32,2.13-1.27,2.45-2.46c0.58-2.17,0.58-6.71,0.58-6.71
	S27.84,9.46,27.27,7.29z M11.17,18.11V9.89L18.4,14L11.17,18.11z"/>
</svg>
