<?xml version="1.0" encoding="utf-8"?>
<!-- Generator: Adobe Illustrator 24.2.0, SVG Export Plug-In . SVG Version: 6.00 Build 0)  -->
<svg version="1.1" id="Layer_1" xmlns="http://www.w3.org/2000/svg" xmlns:xlink="http://www.w3.org/1999/xlink" x="0px" y="0px"
	 viewBox="0 0 39 39" style="enable-background:new 0 0 39 39;" xml:space="preserve">
<style type="text/css">
	.st0{fill:#FFFFFF;}
</style>
<path class="st0" d="M12.45,34.93c14.33,0,22.17-11.87,22.17-22.17c0-0.34-0.01-0.67-0.02-1.01c1.52-1.1,2.84-2.47,3.89-4.03
	c-1.4,0.62-2.9,1.04-4.47,1.23c1.61-0.96,2.84-2.49,3.43-4.31c-1.51,0.89-3.17,1.54-4.95,1.89c-1.42-1.51-3.45-2.46-5.69-2.46
	c-4.3,0-7.79,3.49-7.79,7.79c0,0.61,0.07,1.21,0.2,1.78C12.74,13.31,7,10.21,3.15,5.49C2.48,6.65,2.1,7.98,2.1,9.41
	c0,2.7,1.38,5.09,3.47,6.49c-1.28-0.04-2.48-0.39-3.53-0.97c0,0.03,0,0.07,0,0.1c0,3.77,2.69,6.92,6.25,7.64
	c-0.65,0.18-1.34,0.27-2.05,0.27c-0.5,0-0.99-0.05-1.46-0.14c0.99,3.1,3.87,5.35,7.28,5.41c-2.67,2.09-6.03,3.34-9.68,3.34
	c-0.63,0-1.25-0.04-1.86-0.11C3.96,33.64,8.05,34.93,12.45,34.93"/>
</svg>
