<?xml version="1.0" encoding="utf-8"?>
<!-- Generator: Adobe Illustrator 24.2.0, SVG Export Plug-In . SVG Version: 6.00 Build 0)  -->
<svg version="1.1" id="Layer_1" xmlns="http://www.w3.org/2000/svg" xmlns:xlink="http://www.w3.org/1999/xlink" x="0px" y="0px"
	 viewBox="0 0 39 39" style="enable-background:new 0 0 39 39;" xml:space="preserve">
<style type="text/css">
	.st0{fill:#FFFFFF;}
</style>
<g>
	<path class="st0" d="M19.5,6.09c4.37,0,4.89,0.02,6.61,0.1c1.6,0.07,2.46,0.34,3.04,0.56c0.76,0.3,1.31,0.65,1.88,1.22
		c0.57,0.57,0.93,1.12,1.22,1.88c0.22,0.58,0.49,1.44,0.56,3.04c0.08,1.73,0.1,2.24,0.1,6.61s-0.02,4.89-0.1,6.61
		c-0.07,1.6-0.34,2.46-0.56,3.04c-0.3,0.76-0.65,1.31-1.22,1.88c-0.57,0.57-1.12,0.93-1.88,1.22c-0.58,0.22-1.44,0.49-3.04,0.56
		c-1.72,0.08-2.24,0.1-6.61,0.1s-4.89-0.02-6.61-0.1c-1.6-0.07-2.46-0.34-3.04-0.56c-0.76-0.3-1.31-0.65-1.88-1.22
		c-0.57-0.57-0.93-1.12-1.22-1.88c-0.22-0.58-0.49-1.44-0.56-3.04c-0.08-1.73-0.1-2.24-0.1-6.61s0.02-4.89,0.1-6.61
		c0.07-1.6,0.34-2.46,0.56-3.04c0.3-0.76,0.65-1.31,1.22-1.88C8.54,7.4,9.09,7.04,9.85,6.75c0.58-0.22,1.44-0.49,3.04-0.56
		C14.61,6.1,15.13,6.09,19.5,6.09 M19.5,3.14c-4.44,0-5,0.02-6.74,0.1C11.01,3.32,9.82,3.6,8.78,4C7.71,4.42,6.8,4.98,5.89,5.89
		C4.98,6.8,4.42,7.71,4,8.78c-0.4,1.04-0.68,2.23-0.76,3.97c-0.08,1.74-0.1,2.3-0.1,6.74c0,4.44,0.02,5,0.1,6.74
		C3.32,27.99,3.6,29.18,4,30.22c0.42,1.08,0.98,1.99,1.89,2.9c0.91,0.91,1.82,1.47,2.9,1.89c1.04,0.4,2.23,0.68,3.97,0.76
		c1.74,0.08,2.3,0.1,6.74,0.1s5-0.02,6.74-0.1c1.74-0.08,2.93-0.36,3.97-0.76c1.08-0.42,1.99-0.98,2.9-1.89
		c0.91-0.91,1.47-1.82,1.89-2.9c0.4-1.04,0.68-2.23,0.76-3.97c0.08-1.74,0.1-2.3,0.1-6.74s-0.02-5-0.1-6.74
		C35.68,11.01,35.4,9.82,35,8.78c-0.42-1.08-0.98-1.99-1.89-2.9C32.2,4.98,31.29,4.42,30.22,4c-1.04-0.4-2.23-0.68-3.97-0.76
		C24.5,3.16,23.94,3.14,19.5,3.14L19.5,3.14z"/>
	<path class="st0" d="M19.5,11.1c-4.64,0-8.4,3.76-8.4,8.4s3.76,8.4,8.4,8.4s8.4-3.76,8.4-8.4S24.14,11.1,19.5,11.1z M19.5,24.95
		c-3.01,0-5.45-2.44-5.45-5.45c0-3.01,2.44-5.45,5.45-5.45c3.01,0,5.45,2.44,5.45,5.45C24.95,22.51,22.51,24.95,19.5,24.95z"/>
	<circle class="st0" cx="28.23" cy="10.77" r="1.96"/>
</g>
</svg>
