<?xml version="1.0" encoding="utf-8"?>
<!-- Generator: Adobe Illustrator 24.2.0, SVG Export Plug-In . SVG Version: 6.00 Build 0)  -->
<svg version="1.1" id="Layer_1" xmlns="http://www.w3.org/2000/svg" xmlns:xlink="http://www.w3.org/1999/xlink" x="0px" y="0px"
	 viewBox="0 0 39 39" style="enable-background:new 0 0 39 39;" xml:space="preserve">
<style type="text/css">
	.st0{fill:#FFFFFF;}
</style>
<path class="st0" d="M37.4,10.45c-0.43-1.62-1.7-2.89-3.3-3.32c-2.91-0.79-14.6-0.79-14.6-0.79s-11.68,0-14.6,0.79
	C3.3,7.56,2.03,8.83,1.6,10.45c-0.78,2.93-0.78,9.05-0.78,9.05s0,6.12,0.78,9.05c0.43,1.62,1.7,2.89,3.3,3.32
	c2.91,0.79,14.6,0.79,14.6,0.79s11.68,0,14.6-0.79c1.61-0.43,2.87-1.71,3.3-3.32c0.78-2.93,0.78-9.05,0.78-9.05
	S38.18,13.38,37.4,10.45z M15.68,25.05V13.95l9.76,5.55L15.68,25.05z"/>
</svg>
